<?xml version="1.0" encoding="UTF-8" standalone="no"?>
<!-- Generator: Adobe Illustrator 19.1.0, SVG Export Plug-In . SVG Version: 6.00 Build 0)  -->

<svg
   xmlns:dc="http://purl.org/dc/elements/1.1/"
   xmlns:cc="http://creativecommons.org/ns#"
   xmlns:rdf="http://www.w3.org/1999/02/22-rdf-syntax-ns#"
   xmlns:svg="http://www.w3.org/2000/svg"
   xmlns="http://www.w3.org/2000/svg"
   xmlns:sodipodi="http://sodipodi.sourceforge.net/DTD/sodipodi-0.dtd"
   xmlns:inkscape="http://www.inkscape.org/namespaces/inkscape"
   version="1.1"
   id="Layer_1"
   x="0px"
   y="0px"
   viewBox="0 0 555 102"
   style="enable-background:new 0 0 555 102;"
   xml:space="preserve"
   inkscape:version="0.91 r13725"
   sodipodi:docname="city-skyline.svg"><metadata
     id="metadata3414"><rdf:RDF><cc:Work
         rdf:about=""><dc:format>image/svg+xml</dc:format><dc:type
           rdf:resource="http://purl.org/dc/dcmitype/StillImage" /></cc:Work></rdf:RDF></metadata><defs
     id="defs3412" /><sodipodi:namedview
     pagecolor="#ffffff"
     bordercolor="#666666"
     borderopacity="1"
     objecttolerance="10"
     gridtolerance="10"
     guidetolerance="10" /><style
     type="text/css"
     id="style3404">
	.st0{fill:#3C3C3B;}
</style><polygon
     class="st0"
     points="86.5,533 86.5,527 96.1,527 96.1,530 99.7,530 99.7,509 102.4,509 102.4,501.5 110.8,501.5 110.8,508.7 112.6,510.6 112.6,522.8 115.8,522.8 115.8,518.9 124.2,518.9 124.2,523.1 129.3,523.1 129.3,527 134.7,527 134.7,521.6 138.6,521.6 138.6,510.1 160.5,510.1 160.5,521.6 164.3,521.6 164.3,510.1 182.9,510.1 182.9,514.7 188,514.7 188,531.8 195.2,531.8 195.2,517.1 219.4,517.1 219.4,524.9 223,524.9 223,534.8 225.4,534.8 225.4,540.7 235.9,540.7 235.9,522.8 246.1,522.8 246.1,528.8 249.7,528.8 249.7,522.8 261.6,522.8 261.6,533.6 264,533.6 264,540.7 269.7,540.7 269.7,528.5 282.6,528.5 282.6,525.5 285.3,525.5 285.3,521.9 288,521.9 288,524.9 291,524.9 291,521.3 297.9,521.3 297.9,524.6 300.9,524.6 300.9,534.2 306.5,534.2 306.5,521 317.9,521 317.9,524.9 322.7,524.9 322.7,508.4 326.3,501.8 326.3,494.6 327.8,494.6 327.8,502.1 332,508.1 332,534.2 337.1,534.2 337.1,484.8 352.3,484.8 352.3,530.6 355.3,530.6 355.3,522.8 361.9,522.8 361.9,527.6 375.7,527.6 375.7,533.6 386.5,533.6 386.5,524.3 392.2,524.3 392.2,529.7 396.3,529.7 396.3,526.4 402.3,526.4 402.3,522.5 409.5,522.5 409.5,532.7 414.9,532.7 414.9,512.9 418.5,508.1 423.6,513.2 423.6,522.2 429.6,522.2 429.6,530.3 437.1,530.3 437.1,521.3 442.1,521.3 442.1,517.4 449,517.4 449,520.1 453.8,520.1 453.8,515.9 471.5,515.9 471.5,530 473,530 473,527 479.9,527 479.9,544 485,544 485,538.4 487,538.4 487,520.4 493.9,520.4 493.9,545.8 497.5,545.8 497.5,550.9 504.7,550.9 504.7,546.7 519.7,546.7 519.7,518.3 531.4,518.3 531.4,547.3 555.3,547.3 555.3,562 0,560.8 0,533.6 2.7,533.6 2.7,525.5 19.2,525.5 19.2,518.6 29.3,518.6 29.3,526.4 35,526.4 35,518.6 41,518.6 41,501.5 43.7,501.5 43.7,497.6 50.3,497.6 50.3,501.5 53,501.5 53,516.5 55.4,516.5 55.4,529.2 60.8,529.2 60.8,506.3 64.4,506.3 64.4,488.7 66.8,488.7 66.8,477.3 68.6,477.3 68.6,468.6 70.3,468.6 70.3,459.3 73,459.3 73,468.3 75.1,468.3 75.1,475.5 76.9,475.5 76.9,489.3 79.3,489.3 79.3,507.2 82,507.2 82,533 "
     id="polygon3406"
     clip-path="none"
     transform="translate(0,-459)"
     style="fill:#3c3c3b" /></svg>