<svg
  xmlns="http://www.w3.org/2000/svg"
  viewBox="0 0 555 102">
  
  <polygon
    points="86.5,74 86.5,68 96.1,68 96.1,71 99.7,71 99.7,50 102.4,50 102.4,42.5 110.8,42.5 110.8,49.7 112.6,51.6 112.6,63.8 115.8,63.8 115.8,59.9 124.2,59.9 124.2,64.1 129.3,64.1 129.3,68 134.7,68 134.7,62.6 138.6,62.6 138.6,51.1 160.5,51.1 160.5,62.6 164.3,62.6 164.3,51.1 182.9,51.1 182.9,55.7 188,55.7 188,72.8 195.2,72.8 195.2,58.1 219.4,58.1 219.4,65.9 223,65.9 223,75.8 225.4,75.8 225.4,81.7 235.9,81.7 235.9,63.8 246.1,63.8 246.1,69.8 249.7,69.8 249.7,63.8 261.6,63.8 261.6,74.6 264,74.6 264,81.7 269.7,81.7 269.7,69.5 282.6,69.5 282.6,66.5 285.3,66.5 285.3,62.9 288,62.9 288,65.9 291,65.9 291,62.3 297.9,62.3 297.9,65.6 300.9,65.6 300.9,75.2 306.5,75.2 306.5,62 317.9,62 317.9,65.9 322.7,65.9 322.7,49.4 326.3,42.8 326.3,35.6 327.8,35.6 327.8,43.1 332,49.1 332,75.2 337.1,75.2 337.1,25.8 352.3,25.8 352.3,71.6 355.3,71.6 355.3,63.8 361.9,63.8 361.9,68.6 375.7,68.6 375.7,74.6 386.5,74.6 386.5,65.3 392.2,65.3 392.2,70.7 396.3,70.7 396.3,67.4 402.3,67.4 402.3,63.5 409.5,63.5 409.5,73.7 414.9,73.7 414.9,53.9 418.5,49.1 423.6,54.2 423.6,63.2 429.6,63.2 429.6,71.3 437.1,71.3 437.1,62.3 442.1,62.3 442.1,58.4 449,58.4 449,61.1 453.8,61.1 453.8,56.9 471.5,56.9 471.5,71 473,71 473,68 479.9,68 479.9,85 485,85 485,79.4 487,79.4 487,61.4 493.9,61.4 493.9,86.8 497.5,86.8 497.5,91.9 504.7,91.9 504.7,87.7 519.7,87.7 519.7,59.3 531.4,59.3 531.4,88.3 555,88.3 555,102 0,102 0,74.6 2.7,74.6 2.7,66.5 19.2,66.5 19.2,59.6 29.3,59.6 29.3,67.4 35,67.4 35,59.6 41,59.6 41,42.5 43.7,42.5 43.7,38.6 50.3,38.6 50.3,42.5 53,42.5 53,57.5 55.4,57.5 55.4,70.2 60.8,70.2 60.8,47.3 64.4,47.3 64.4,29.7 66.8,29.7 66.8,18.3 68.6,18.3 68.6,9.6 70.3,9.6 70.3,0.3 73,0.3 73,9.3 75.1,9.3 75.1,16.5 76.9,16.5 76.9,30.3 79.3,30.3 79.3,48.2 82,48.2 82,74"
    style="fill:#3c3c3b" />
</svg>